<svg width="26" height="26" viewBox="0 0 26 26" fill="none" xmlns="http://www.w3.org/2000/svg">
<path d="M18.3476 6.09398C18.3476 9.04537 15.955 11.438 13.0036 11.438C10.0522 11.438 7.65967 9.04537 7.65967 6.09398C7.65967 3.14258 10.0522 0.75 13.0036 0.75C15.955 0.75 18.3476 3.14258 18.3476 6.09398Z" stroke="#929292" stroke-width="1.5" stroke-linecap="round"/>
<path d="M2.90307 17.1184C3.69323 15.6121 5.29313 14.8833 6.8924 14.8833H13.0041H19.1157C20.715 14.8833 22.3149 15.6121 23.1051 17.1184C23.928 18.6873 24.8854 21.1 25.0071 23.999C25.0354 24.6749 24.4861 25.2037 23.8405 25.2037H2.16761C1.52205 25.2037 0.97269 24.6749 1.00105 23.999C1.1227 21.1 2.08011 18.6873 2.90307 17.1184Z" stroke="#929292" stroke-width="1.5" stroke-linecap="round"/>
</svg>
